<svg width="72" height="72" viewBox="0 0 72 72" fill="none" xmlns="http://www.w3.org/2000/svg">
<path d="M16 3.04301V67.9571C16 69.9732 18.2169 71.4313 20.4501 70.884L55.4501 62.3065C56.9583 61.9369 58 60.7412 58 59.3796V11.9129C58 10.5613 56.9733 9.37187 55.48 8.99343L20.48 0.123554C18.24 -0.444118 16 1.01561 16 3.04301Z" fill="url(#paint0_linear_2673_132632)"/>
<path d="M23 9.44298V61.5571C23 63.1757 24.5835 64.3463 26.1787 63.9069L51.1787 57.0207C52.256 56.724 53 55.7641 53 54.671V16.5639C53 15.4788 52.2667 14.5239 51.2 14.2201L26.2 7.09919C24.6 6.64345 23 7.81535 23 9.44298Z" fill="url(#paint1_linear_2673_132632)"/>
<path fill-rule="evenodd" clip-rule="evenodd" d="M16 55.9791C14.8402 56.0198 13.5213 56.0166 11.8174 56.0126H11.8174L11.8174 56.0126C11.2561 56.0113 10.653 56.0098 10 56.0098C8.34315 56.0098 7 54.6667 7 53.0098C7 51.353 8.34315 50.0098 10 50.0098C10.7167 50.0098 11.3581 50.0111 11.9374 50.0122H11.9377C13.7754 50.0157 14.9885 50.0181 16 49.9758V55.9791ZM16 42.3055C14.3791 42.4339 12.9578 42.4203 11.4682 42.4061H11.4682L11.4678 42.4061C10.9886 42.4016 10.5023 42.3969 10 42.3969C8.34315 42.3969 7 41.0538 7 39.3969C7 37.7401 8.34315 36.3969 10 36.3969C10.6356 36.3969 11.1981 36.4021 11.716 36.4069H11.716C13.1751 36.4203 14.2805 36.4305 15.6716 36.3123C15.7792 36.3032 15.8886 36.2932 16 36.2824V42.3055ZM23 34.9835V41.1451C23.7159 40.9829 24.4817 40.8009 25.3057 40.5969C35.7786 38.0037 40.374 38.1088 44.6894 39.4865C45.2348 39.6605 45.8122 39.86 46.4198 40.0699C48.2245 40.6932 50.2957 41.4087 52.5852 41.8253C55.8096 42.4121 59.5646 42.4663 64.5995 41.4394C66.223 41.1083 67.2706 39.5238 66.9395 37.9004C66.6084 36.2769 65.0239 35.2293 63.4005 35.5604C59.0293 36.452 56.0501 36.3574 53.6594 35.9223C51.8551 35.5939 50.4146 35.0965 48.75 34.5216L48.75 34.5216C48.0575 34.2824 47.3263 34.0299 46.5141 33.7706C40.626 31.891 34.7298 32.0822 23.8636 34.7728C23.5668 34.8463 23.279 34.9165 23 34.9835ZM16 27.5111C14.7524 27.579 13.5441 27.56 12.2095 27.5391H12.2095C11.515 27.5282 10.7862 27.5168 10 27.5168C8.34315 27.5168 7 26.1737 7 24.5168C7 22.86 8.34315 21.5168 10 21.5168C11.0563 21.5168 11.8991 21.5308 12.6278 21.5429H12.6279C13.9262 21.5645 14.8626 21.5801 16 21.4997V27.5111ZM23 20.2374V26.4004C23.7086 26.239 24.4734 26.0565 25.3057 25.8504C35.6621 23.2861 41.5258 23.5244 46.9638 25.7201C51.0606 27.3743 53.4958 28.3033 55.9419 28.4648C57.1955 28.5476 58.3564 28.428 59.6008 28.239C60.1652 28.1533 60.8793 28.03 61.6752 27.8927L61.6755 27.8926L61.6756 27.8926C62.4391 27.7608 63.2779 27.616 64.1319 27.4789C65.7678 27.2163 66.8811 25.6773 66.6185 24.0414C66.356 22.4054 64.8169 21.2922 63.181 21.5547C62.1043 21.7276 61.2797 21.8712 60.5693 21.9949L60.5692 21.9949C59.8808 22.1148 59.2995 22.216 58.6998 22.3071C57.6196 22.4711 56.9544 22.5186 56.3372 22.4779C55.0418 22.3923 53.557 21.9117 49.2103 20.1566C42.1348 17.2996 34.8464 17.3069 23.8636 20.0263C23.5653 20.1002 23.2777 20.1705 23 20.2374ZM23 48.7323V54.9063C23.6915 54.7417 24.4519 54.5548 25.3059 54.3433C35.987 51.6979 41.8725 51.1762 46.9825 53.1999C50.5282 54.6041 53.107 55.5862 55.6468 56.0477C58.2888 56.5279 60.7372 56.4241 64.0517 55.9836C65.6941 55.7654 66.8486 54.257 66.6303 52.6146C66.412 50.9722 64.9037 49.8177 63.2612 50.0359C60.2106 50.4414 58.4722 50.4629 56.7197 50.1444C54.8651 49.8074 52.8418 49.0669 49.1917 47.6214C42.1275 44.8238 34.521 45.8797 23.8634 48.5193C23.5612 48.5942 23.2738 48.6651 23 48.7323Z" fill="#DD6A6D"/>
<defs>
<linearGradient id="paint0_linear_2673_132632" x1="17" y1="-4.5" x2="47" y2="67" gradientUnits="userSpaceOnUse">
<stop stop-color="#AF201C"/>
<stop offset="1" stop-color="#C42D2D"/>
</linearGradient>
<linearGradient id="paint1_linear_2673_132632" x1="8.96774" y1="35.5" x2="63.6452" y2="35.5" gradientUnits="userSpaceOnUse">
<stop stop-color="#7A0806"/>
<stop offset="1" stop-color="#740402" stop-opacity="0"/>
</linearGradient>
</defs>
</svg>
